<?xml version="1.0" encoding="UTF-8" standalone="no"?>
<svg width="37px" height="49px" viewBox="0 0 37 49" version="1.1" xmlns="http://www.w3.org/2000/svg" xmlns:xlink="http://www.w3.org/1999/xlink" xmlns:sketch="http://www.bohemiancoding.com/sketch/ns">
    <!-- Generator: Sketch 3.5.2 (25235) - http://www.bohemiancoding.com/sketch -->
    <title>Fill-25-+-Fill-26</title>
    <desc>Created with Sketch.</desc>
    <defs></defs>
    <g id="Page-1" stroke="none" stroke-width="1" fill="none" fill-rule="evenodd" sketch:type="MSPage">
        <g id="Unknown" sketch:type="MSLayerGroup" fill="#FFFFFF">
            <g id="Page-1" sketch:type="MSShapeGroup">
                <g id="Artboard">
                    <g id="logo">
                        <g id="Page-1">
                            <g id="logo">
                                <g id="Fill-25-+-Fill-26">
                                    <path d="M22.3979629,27.9017411 C22.102661,27.35722 21.6991515,26.7699101 21.3116987,26.9479665 C20.746227,27.2067693 19.9734157,28.8831214 20.3406232,29.0984453 C20.7078308,29.3179101 22.6904723,28.4462622 22.3979629,27.9017411" id="Fill-25"></path>
                                    <path d="M20.9887736,17.1230845 C16.3777358,17.1230845 12.2372264,19.070662 9.33307547,22.1693944 L9.33307547,0 L0,11.8966479 L0,48.5596901 L9.33307547,48.5596901 L9.33307547,33.5449859 C10.0276981,34.2861972 12.5723208,35.5898732 14.7029623,33.5284225 C16.3937925,31.8920986 16.1822642,29.3337465 16.1822642,29.3337465 C16.1822642,29.3337465 15.3752453,33.5277324 12.5625472,33.5021972 C8.11766038,33.462169 9.07198113,29.9741972 10.9547925,27.0859577 C13.3981887,23.3350423 15.8332075,24.0824648 18.4972075,24.0341549 C21.6470943,23.9775634 23.8321887,25.3047042 24.154717,25.4965634 C24.4751509,25.685662 28.7008302,25.6180282 30.9515472,25.6477042 C32.8294717,25.6732394 32.3854717,26.5124507 31.998717,29.9452113 C31.6140566,33.3779718 29.476434,33.8396761 24.8339811,35.6160986 C21.4739623,36.9011408 20.732566,42.664507 14.4998113,47.1897606 C16.4824528,48.069 18.6759245,48.5610704 20.9887736,48.5610704 C29.7696415,48.5610704 36.8883019,41.5223239 36.8883019,32.8410423 C36.8883019,24.1604507 29.7696415,17.1230845 20.9887736,17.1230845" id="Fill-26"></path>
                                </g>
                            </g>
                        </g>
                    </g>
                </g>
            </g>
        </g>
    </g>
</svg>